<svg width="36" height="36" viewBox="0 0 36 36" fill="none" xmlns="http://www.w3.org/2000/svg">
<g clip-path="url(#clip0)">
<circle cx="18" cy="17.4375" r="2.25" fill="url(#paint0_radial)"/>
<g filter="url(#filter0_d)">
<path fill-rule="evenodd" clip-rule="evenodd" d="M18 32.625C26.3878 32.625 33.1875 25.8253 33.1875 17.4375C33.1875 9.04968 26.3878 2.25 18 2.25C9.61218 2.25 2.8125 9.04968 2.8125 17.4375C2.8125 25.8253 9.61218 32.625 18 32.625ZM18 28.6875C24.2132 28.6875 29.25 23.6507 29.25 17.4375C29.25 11.2243 24.2132 6.1875 18 6.1875C11.7868 6.1875 6.75 11.2243 6.75 17.4375C6.75 23.6507 11.7868 28.6875 18 28.6875Z" fill="url(#paint1_radial)"/>
</g>
<g filter="url(#filter1_d)">
<path fill-rule="evenodd" clip-rule="evenodd" d="M18 29.7446C24.797 29.7446 30.3071 24.2345 30.3071 17.4375C30.3071 10.6405 24.797 5.13039 18 5.13039C11.203 5.13039 5.69287 10.6405 5.69287 17.4375C5.69287 24.2345 11.203 29.7446 18 29.7446ZM18 26.229C22.8554 26.229 26.7915 22.2929 26.7915 17.4375C26.7915 12.5821 22.8554 8.64602 18 8.64602C13.1446 8.64602 9.2085 12.5821 9.2085 17.4375C9.2085 22.2929 13.1446 26.229 18 26.229Z" fill="url(#paint2_radial)"/>
</g>
<g filter="url(#filter2_d)">
<path fill-rule="evenodd" clip-rule="evenodd" d="M18 26.229C22.8554 26.229 26.7915 22.2929 26.7915 17.4375C26.7915 12.5821 22.8554 8.64602 18 8.64602C13.1446 8.64602 9.2085 12.5821 9.2085 17.4375C9.2085 22.2929 13.1446 26.229 18 26.229ZM18 22.9025C21.0182 22.9025 23.465 20.4557 23.465 17.4375C23.465 14.4193 21.0182 11.9725 18 11.9725C14.9818 11.9725 12.535 14.4193 12.535 17.4375C12.535 20.4557 14.9818 22.9025 18 22.9025Z" fill="url(#paint3_radial)"/>
</g>
<g filter="url(#filter3_d)">
<path fill-rule="evenodd" clip-rule="evenodd" d="M18 22.9025C21.0182 22.9025 23.465 20.4557 23.465 17.4375C23.465 14.4193 21.0182 11.9725 18 11.9725C14.9818 11.9725 12.535 14.4193 12.535 17.4375C12.535 20.4557 14.9818 22.9025 18 22.9025ZM18 22.1897C20.6246 22.1897 22.7522 20.062 22.7522 17.4375C22.7522 14.813 20.6246 12.6853 18 12.6853C15.3755 12.6853 13.2479 14.813 13.2479 17.4375C13.2479 20.062 15.3755 22.1897 18 22.1897Z" fill="url(#paint4_radial)"/>
</g>
</g>
<defs>
<filter id="filter0_d" x="-0.1875" y="1.25" width="36.375" height="36.375" filterUnits="userSpaceOnUse" color-interpolation-filters="sRGB">
<feFlood flood-opacity="0" result="BackgroundImageFix"/>
<feColorMatrix in="SourceAlpha" type="matrix" values="0 0 0 0 0 0 0 0 0 0 0 0 0 0 0 0 0 0 127 0"/>
<feOffset dy="2"/>
<feGaussianBlur stdDeviation="1.5"/>
<feColorMatrix type="matrix" values="0 0 0 0 0.280583 0 0 0 0 0.11375 0 0 0 0 0.758333 0 0 0 0.25 0"/>
<feBlend mode="normal" in2="BackgroundImageFix" result="effect1_dropShadow"/>
<feBlend mode="normal" in="SourceGraphic" in2="effect1_dropShadow" result="shape"/>
</filter>
<filter id="filter1_d" x="-2.30713" y="-0.869612" width="40.6142" height="40.6142" filterUnits="userSpaceOnUse" color-interpolation-filters="sRGB">
<feFlood flood-opacity="0" result="BackgroundImageFix"/>
<feColorMatrix in="SourceAlpha" type="matrix" values="0 0 0 0 0 0 0 0 0 0 0 0 0 0 0 0 0 0 127 0"/>
<feOffset dy="2"/>
<feGaussianBlur stdDeviation="4"/>
<feColorMatrix type="matrix" values="0 0 0 0 0.280583 0 0 0 0 0.11375 0 0 0 0 0.758333 0 0 0 0.25 0"/>
<feBlend mode="normal" in2="BackgroundImageFix" result="effect1_dropShadow"/>
<feBlend mode="normal" in="SourceGraphic" in2="effect1_dropShadow" result="shape"/>
</filter>
<filter id="filter2_d" x="6.2085" y="7.64602" width="23.583" height="23.583" filterUnits="userSpaceOnUse" color-interpolation-filters="sRGB">
<feFlood flood-opacity="0" result="BackgroundImageFix"/>
<feColorMatrix in="SourceAlpha" type="matrix" values="0 0 0 0 0 0 0 0 0 0 0 0 0 0 0 0 0 0 127 0"/>
<feOffset dy="2"/>
<feGaussianBlur stdDeviation="1.5"/>
<feColorMatrix type="matrix" values="0 0 0 0 0.280583 0 0 0 0 0.11375 0 0 0 0 0.758333 0 0 0 0.25 0"/>
<feBlend mode="normal" in2="BackgroundImageFix" result="effect1_dropShadow"/>
<feBlend mode="normal" in="SourceGraphic" in2="effect1_dropShadow" result="shape"/>
</filter>
<filter id="filter3_d" x="10.535" y="11.9725" width="14.93" height="14.93" filterUnits="userSpaceOnUse" color-interpolation-filters="sRGB">
<feFlood flood-opacity="0" result="BackgroundImageFix"/>
<feColorMatrix in="SourceAlpha" type="matrix" values="0 0 0 0 0 0 0 0 0 0 0 0 0 0 0 0 0 0 127 0"/>
<feOffset dy="2"/>
<feGaussianBlur stdDeviation="1"/>
<feColorMatrix type="matrix" values="0 0 0 0 0.280583 0 0 0 0 0.11375 0 0 0 0 0.758333 0 0 0 0.25 0"/>
<feBlend mode="normal" in2="BackgroundImageFix" result="effect1_dropShadow"/>
<feBlend mode="normal" in="SourceGraphic" in2="effect1_dropShadow" result="shape"/>
</filter>
<radialGradient id="paint0_radial" cx="0" cy="0" r="1" gradientUnits="userSpaceOnUse" gradientTransform="translate(17.5 16.1875) rotate(81.8699) scale(3.53553)">
<stop offset="0.244306" stop-color="#A383FF"/>
<stop offset="1" stop-color="#491CCA"/>
</radialGradient>
<radialGradient id="paint1_radial" cx="0" cy="0" r="1" gradientUnits="userSpaceOnUse" gradientTransform="translate(18 17.4375) rotate(90) scale(25.0594)">
<stop offset="0.571581" stop-color="#A383FF"/>
<stop offset="1" stop-color="#491CCA"/>
</radialGradient>
<radialGradient id="paint2_radial" cx="0" cy="0" r="1" gradientUnits="userSpaceOnUse" gradientTransform="translate(18 17.4375) rotate(90) scale(21.1709)">
<stop offset="0.571581" stop-color="#A383FF"/>
<stop offset="1" stop-color="#491CCA"/>
</radialGradient>
<radialGradient id="paint3_radial" cx="0" cy="0" r="1" gradientUnits="userSpaceOnUse" gradientTransform="translate(18 17.4375) rotate(90) scale(14.4667)">
<stop offset="0.398172" stop-color="#A383FF"/>
<stop offset="1" stop-color="#491CCA"/>
</radialGradient>
<radialGradient id="paint4_radial" cx="0" cy="0" r="1" gradientUnits="userSpaceOnUse" gradientTransform="translate(18 17.4375) rotate(90) scale(9.01721)">
<stop offset="0.218458" stop-color="#A383FF"/>
<stop offset="1" stop-color="#491CCA"/>
</radialGradient>
<clipPath id="clip0">
<rect width="36" height="36" fill="white"/>
</clipPath>
</defs>
</svg>
